g Box13
v -0.02451263 0.01145338 0
v -0.02451263 -0.01145338 0
v 0.02451263 0.01145338 0
v 0.02451263 -0.01145338 0
v 0.02451263 0.01145338 0.009862865
v -0.02451263 -0.01145338 0.009862865
v -0.02451263 0.01145338 0.009862865
v 0.02451263 -0.01145338 0.009862865
v 0.02451263 -0.01216766 0.009148587
v -0.02451263 -0.01216766 0.0007142783
v -0.02451263 -0.01216766 0.009148587
v 0.02451263 -0.01216766 0.0007142783
v 0.02522691 0.01145338 0.009148587
v 0.02522691 -0.01145338 0.0007142783
v 0.02522691 -0.01145338 0.009148587
v 0.02522691 0.01145338 0.0007142783
v -0.02451263 0.01216766 0.009148587
v 0.02451263 0.01216766 0.0007142783
v 0.02451263 0.01216766 0.009148587
v -0.02451263 0.01216766 0.0007142783
v -0.02522691 -0.01145338 0.009148587
v -0.02522691 0.01145338 0.0007142783
v -0.02522691 0.01145338 0.009148587
v -0.02522691 -0.01145338 0.0007142783
v -0.02451263 -0.01216766 0.0007142783
v -0.02451263 -0.01145338 0
v -0.02522691 -0.01145338 0.0007142783
v 0.02451263 -0.01145338 0
v 0.02451263 -0.01216766 0.0007142783
v 0.02522691 -0.01145338 0.0007142783
v -0.02522691 0.01145338 0.0007142783
v -0.02451263 0.01145338 0
v -0.02451263 0.01216766 0.0007142783
v 0.02451263 0.01145338 0
v 0.02522691 0.01145338 0.0007142783
v 0.02451263 0.01216766 0.0007142783
v -0.02451263 -0.01216766 0.009148587
v -0.02522691 -0.01145338 0.009148587
v -0.02451263 -0.01145338 0.009862865
v 0.02522691 -0.01145338 0.009148587
v 0.02451263 -0.01216766 0.009148587
v 0.02451263 -0.01145338 0.009862865
v -0.02522691 0.01145338 0.009148587
v -0.02451263 0.01216766 0.009148587
v -0.02451263 0.01145338 0.009862865
v 0.02451263 0.01216766 0.009148587
v 0.02522691 0.01145338 0.009148587
v 0.02451263 0.01145338 0.009862865
v -0.02522691 0.01145338 0.0007142783
v -0.02522691 -0.01145338 0.0007142783
v -0.02451263 -0.01145338 0
v -0.02451263 0.01145338 0
v 0.02451263 0.01216766 0.0007142783
v -0.02451263 0.01216766 0.0007142783
v -0.02451263 0.01145338 0
v 0.02451263 0.01145338 0
v 0.02522691 -0.01145338 0.0007142783
v 0.02522691 0.01145338 0.0007142783
v 0.02451263 0.01145338 0
v 0.02451263 -0.01145338 0
v -0.02451263 -0.01216766 0.0007142783
v 0.02451263 -0.01216766 0.0007142783
v 0.02451263 -0.01145338 0
v -0.02451263 -0.01145338 0
v -0.02451263 -0.01216766 0.009148587
v -0.02451263 -0.01145338 0.009862865
v 0.02451263 -0.01216766 0.009148587
v 0.02451263 -0.01145338 0.009862865
v 0.02522691 -0.01145338 0.009148587
v 0.02451263 -0.01145338 0.009862865
v 0.02522691 0.01145338 0.009148587
v 0.02451263 0.01145338 0.009862865
v 0.02451263 0.01216766 0.009148587
v 0.02451263 0.01145338 0.009862865
v -0.02451263 0.01216766 0.009148587
v -0.02451263 0.01145338 0.009862865
v -0.02522691 0.01145338 0.009148587
v -0.02451263 0.01145338 0.009862865
v -0.02522691 -0.01145338 0.009148587
v -0.02451263 -0.01145338 0.009862865
v 0.02451263 -0.01216766 0.009148587
v 0.02522691 -0.01145338 0.009148587
v 0.02451263 -0.01216766 0.0007142783
v 0.02522691 -0.01145338 0.0007142783
v -0.02522691 -0.01145338 0.009148587
v -0.02451263 -0.01216766 0.009148587
v -0.02522691 -0.01145338 0.0007142783
v -0.02451263 -0.01216766 0.0007142783
v 0.02522691 0.01145338 0.009148587
v 0.02451263 0.01216766 0.009148587
v 0.02522691 0.01145338 0.0007142783
v 0.02451263 0.01216766 0.0007142783
v -0.02451263 0.01216766 0.009148587
v -0.02522691 0.01145338 0.009148587
v -0.02451263 0.01216766 0.0007142783
v -0.02522691 0.01145338 0.0007142783
vt 1.578572 0.9053261
vt 1.578572 0.09467426
vt -0.5785723 0.9053258
vt -0.578572 0.09467384
vt 1.578572 0.9053258
vt -0.5785723 0.09467426
vt -0.578572 0.9053261
vt 1.578572 0.09467384
vt 1.578572 0.6260035
vt -0.5785723 0.3739965
vt -0.5785723 0.6260035
vt 1.578572 0.3739965
vt 0.9053258 0.6260035
vt 0.09467384 0.3739965
vt 0.09467384 0.6260035
vt 0.9053258 0.3739965
vt 1.578572 0.6260035
vt -0.5785723 0.3739965
vt -0.5785723 0.6260035
vt 1.578572 0.3739965
vt 0.9053258 0.6260035
vt 0.09467387 0.3739965
vt 0.09467387 0.6260035
vt 0.9053258 0.3739965
vt 0.9306035 0.3739965
vt 0.9053258 0.3526547
vt 0.9053258 0.3739965
vt 0.09467384 0.3526547
vt 0.06939608 0.3739965
vt 0.09467384 0.3739965
vt 0.09467387 0.3739965
vt 0.09467387 0.3526547
vt 0.06939608 0.3739965
vt 0.9053258 0.3526547
vt 0.9053258 0.3739965
vt 0.9306035 0.3739965
vt 0.9306035 0.6260035
vt 0.9053258 0.6260035
vt 0.9053258 0.6473453
vt 0.09467384 0.6260035
vt 0.06939608 0.6260035
vt 0.09467384 0.6473453
vt 0.09467387 0.6260035
vt 0.06939608 0.6260035
vt 0.09467387 0.6473453
vt 0.9306035 0.6260035
vt 0.9053258 0.6260035
vt 0.9053258 0.6473453
vt 0.09467387 0.3739965
vt 0.9053258 0.3739965
vt 0.9053258 0.3526547
vt 0.09467387 0.3526547
vt -0.5785723 0.3739965
vt 1.578572 0.3739965
vt 1.578572 0.3526547
vt -0.5785723 0.3526547
vt 0.09467384 0.3739965
vt 0.9053258 0.3739965
vt 0.9053258 0.3526547
vt 0.09467384 0.3526547
vt -0.5785723 0.3739965
vt 1.578572 0.3739965
vt 1.578572 0.3526547
vt -0.5785723 0.3526547
vt -0.5785723 0.6260035
vt -0.5785723 0.6473453
vt 1.578572 0.6260035
vt 1.578572 0.6473453
vt 0.09467384 0.6260035
vt 0.09467384 0.6473453
vt 0.9053258 0.6260035
vt 0.9053258 0.6473453
vt -0.5785723 0.6260035
vt -0.5785723 0.6473453
vt 1.578572 0.6260035
vt 1.578572 0.6473453
vt 0.09467387 0.6260035
vt 0.09467387 0.6473453
vt 0.9053258 0.6260035
vt 0.9053258 0.6473453
vt 0.06939608 0.6260035
vt 0.09467384 0.6260035
vt 0.06939608 0.3739965
vt 0.09467384 0.3739965
vt 0.9053258 0.6260035
vt 0.9306035 0.6260035
vt 0.9053258 0.3739965
vt 0.9306035 0.3739965
vt 0.9053258 0.6260035
vt 0.9306035 0.6260035
vt 0.9053258 0.3739965
vt 0.9306035 0.3739965
vt 0.06939608 0.6260035
vt 0.09467387 0.6260035
vt 0.06939608 0.3739965
vt 0.09467387 0.3739965
vn 0 0 -1
vn 0 0 -1
vn 0 0 -1
vn 0 0 -1
vn 0 0 1
vn 0 0 1
vn 0 0 1
vn 0 0 1
vn 0 -1 0
vn 0 -1 0
vn 0 -1 0
vn 0 -1 0
vn 1 0 0
vn 1 0 0
vn 1 0 0
vn 1 0 0
vn 0 1 0
vn 0 1 0
vn 0 1 0
vn 0 1 0
vn -1 0 0
vn -1 0 0
vn -1 0 0
vn -1 0 0
vn -0.5773507 -0.57735 -0.57735
vn -0.5773507 -0.57735 -0.57735
vn -0.5773507 -0.57735 -0.57735
vn 0.5773507 -0.57735 -0.57735
vn 0.5773507 -0.57735 -0.57735
vn 0.5773507 -0.57735 -0.57735
vn -0.5773507 0.57735 -0.57735
vn -0.5773507 0.57735 -0.57735
vn -0.5773507 0.57735 -0.57735
vn 0.5773507 0.57735 -0.57735
vn 0.5773507 0.57735 -0.57735
vn 0.5773507 0.57735 -0.57735
vn -0.5773507 -0.57735 0.57735
vn -0.5773507 -0.57735 0.57735
vn -0.5773507 -0.57735 0.57735
vn 0.5773507 -0.57735 0.57735
vn 0.5773507 -0.57735 0.57735
vn 0.5773507 -0.57735 0.57735
vn -0.5773507 0.57735 0.57735
vn -0.5773507 0.57735 0.57735
vn -0.5773507 0.57735 0.57735
vn 0.5773507 0.57735 0.57735
vn 0.5773507 0.57735 0.57735
vn 0.5773507 0.57735 0.57735
vn -0.7071072 0 -0.7071063
vn -0.7071072 0 -0.7071063
vn -0.7071072 0 -0.7071063
vn -0.7071072 0 -0.7071063
vn 0 0.7071068 -0.7071068
vn 0 0.7071068 -0.7071068
vn 0 0.7071068 -0.7071068
vn 0 0.7071068 -0.7071068
vn 0.7071072 0 -0.7071063
vn 0.7071072 0 -0.7071063
vn 0.7071072 0 -0.7071063
vn 0.7071072 0 -0.7071063
vn 0 -0.7071068 -0.7071068
vn 0 -0.7071068 -0.7071068
vn 0 -0.7071068 -0.7071068
vn 0 -0.7071068 -0.7071068
vn 0 -0.7071068 0.7071068
vn 0 -0.7071068 0.7071068
vn 0 -0.7071068 0.7071068
vn 0 -0.7071068 0.7071068
vn 0.7071072 0 0.7071063
vn 0.7071072 0 0.7071063
vn 0.7071072 0 0.7071063
vn 0.7071072 0 0.7071063
vn 0 0.7071068 0.7071068
vn 0 0.7071068 0.7071068
vn 0 0.7071068 0.7071068
vn 0 0.7071068 0.7071068
vn -0.7071072 0 0.7071063
vn -0.7071072 0 0.7071063
vn -0.7071072 0 0.7071063
vn -0.7071072 0 0.7071063
vn 0.7071072 -0.7071063 0
vn 0.7071072 -0.7071063 0
vn 0.7071072 -0.7071063 0
vn 0.7071072 -0.7071063 0
vn -0.7071072 -0.7071063 0
vn -0.7071072 -0.7071063 0
vn -0.7071072 -0.7071063 0
vn -0.7071072 -0.7071063 0
vn 0.7071072 0.7071063 0
vn 0.7071072 0.7071063 0
vn 0.7071072 0.7071063 0
vn 0.7071072 0.7071063 0
vn -0.7071072 0.7071063 0
vn -0.7071072 0.7071063 0
vn -0.7071072 0.7071063 0
vn -0.7071072 0.7071063 0
g Box13_0
f 3/3/3 2/2/2 1/1/1
f 2/2/2 3/3/3 4/4/4
f 7/7/7 6/6/6 5/5/5
f 6/6/6 8/8/8 5/5/5
f 11/11/11 10/10/10 9/9/9
f 10/10/10 12/12/12 9/9/9
f 15/15/15 14/14/14 13/13/13
f 14/14/14 16/16/16 13/13/13
f 19/19/19 18/18/18 17/17/17
f 18/18/18 20/20/20 17/17/17
f 23/23/23 22/22/22 21/21/21
f 22/22/22 24/24/24 21/21/21
f 27/27/27 26/26/26 25/25/25
f 30/30/30 29/29/29 28/28/28
f 33/33/33 32/32/32 31/31/31
f 36/36/36 35/35/35 34/34/34
f 39/39/39 38/38/38 37/37/37
f 42/42/42 41/41/41 40/40/40
f 45/45/45 44/44/44 43/43/43
f 48/48/48 47/47/47 46/46/46
f 51/51/51 50/50/50 49/49/49
f 49/49/49 52/52/52 51/51/51
f 55/55/55 54/54/54 53/53/53
f 53/53/53 56/56/56 55/55/55
f 59/59/59 58/58/58 57/57/57
f 57/57/57 60/60/60 59/59/59
f 63/63/63 62/62/62 61/61/61
f 61/61/61 64/64/64 63/63/63
f 67/67/67 66/66/66 65/65/65
f 66/66/66 67/67/67 68/68/68
f 71/71/71 70/70/70 69/69/69
f 70/70/70 71/71/71 72/72/72
f 75/75/75 74/74/74 73/73/73
f 74/74/74 75/75/75 76/76/76
f 79/79/79 78/78/78 77/77/77
f 78/78/78 79/79/79 80/80/80
f 83/83/83 82/82/82 81/81/81
f 83/83/83 84/84/84 82/82/82
f 87/87/87 86/86/86 85/85/85
f 87/87/87 88/88/88 86/86/86
f 91/91/91 90/90/90 89/89/89
f 91/91/91 92/92/92 90/90/90
f 95/95/95 94/94/94 93/93/93
f 95/95/95 96/96/96 94/94/94
