g XiangZhuang_Skin03:polySurface8
v 0.0003052786 -0.005584683 -0.0001486862
v -0.0003381297 -0.005584683 0.0001486889
v 0.0003074792 -0.005584683 0.0001632272
v -0.0003403303 -0.005584683 -0.0001632245
v 0.0003052786 -0.005584683 -0.0001486862
v 0.0002726737 -0.004545933 -0.0001106037
v -1.56495E-05 -0.004749156 -0.0001554162
v -0.0003381297 -0.005584683 0.0001486889
v -0.0003044054 -0.004545933 -0.0001134839
v -0.0003055236 -0.004545933 0.0001106061
v -0.0003044054 -0.004545933 -0.0001134839
v -0.0003381297 -0.005584683 0.0001486889
v -0.0003403303 -0.005584683 -0.0001632245
v -0.0003381297 -0.005584683 0.0001486889
v -0.0003055236 -0.004545933 0.0001106061
v -1.72016E-05 -0.004749156 0.0001554186
v 0.0003052786 -0.005584683 -0.0001486862
v 0.0002715555 -0.004545933 0.0001134863
v 0.0002726737 -0.004545933 -0.0001106037
v 0.0002715555 -0.004545933 0.0001134863
v 0.0003052786 -0.005584683 -0.0001486862
v 0.0003074792 -0.005584683 0.0001632272
v -0.0004181144 0.002878124 0.0001529201
v -0.0003856108 0.001972696 -0.0001217809
v -0.0004241416 0.002878124 -0.0001584356
v -0.0003856108 0.001972696 -0.0001217809
v -0.0004181144 0.002878124 0.0001529201
v -0.0003868076 0.001972696 0.00011809
v -0.0003044054 -0.004545933 -0.0001134839
v -0.0003055236 -0.004545933 0.0001106061
v 0.0003922871 0.002878124 -0.0001529201
v 0.0003527584 0.001972696 0.0001217812
v 0.0003912893 0.002878124 0.0001584356
v 0.0003539565 0.001972696 -0.0001180897
v 0.0002715555 -0.004545933 0.0001134863
v -0.0003856108 0.001972696 -0.0001217809
v -1.56495E-05 -0.004749156 -0.0001554162
v -1.529545E-05 0.002870914 -0.0002263983
v -1.56495E-05 -0.004749156 -0.0001554162
v -0.0003856108 0.001972696 -0.0001217809
v -0.0003044054 -0.004545933 -0.0001134839
v 0.0003527584 0.001972696 0.0001217812
v -1.72016E-05 -0.004749156 0.0001554186
v -1.755566E-05 0.002870914 0.0002263983
v -1.72016E-05 -0.004749156 0.0001554186
v 0.0003527584 0.001972696 0.0001217812
v 0.0002715555 -0.004545933 0.0001134863
v 0.0002715555 -0.004545933 0.0001134863
v 0.0003539565 0.001972696 -0.0001180897
v 0.0002726737 -0.004545933 -0.0001106037
v -1.755566E-05 0.002870914 0.0002263983
v -0.0003868076 0.001972696 0.00011809
v -0.0004181144 0.002878124 0.0001529201
v 0.0003527584 0.001972696 0.0001217812
v -1.755566E-05 0.002870914 0.0002263983
v 0.0003912893 0.002878124 0.0001584356
v -1.529545E-05 0.002870914 -0.0002263983
v 0.0003539565 0.001972696 -0.0001180897
v 0.0003922871 0.002878124 -0.0001529201
v -0.0003856108 0.001972696 -0.0001217809
v -1.529545E-05 0.002870914 -0.0002263983
v -0.0004241416 0.002878124 -0.0001584356
v -0.0003868076 0.001972696 0.00011809
v -1.72016E-05 -0.004749156 0.0001554186
v -0.0003055236 -0.004545933 0.0001106061
v -1.72016E-05 -0.004749156 0.0001554186
v -0.0003868076 0.001972696 0.00011809
v -1.755566E-05 0.002870914 0.0002263983
v 0.0003539565 0.001972696 -0.0001180897
v -1.56495E-05 -0.004749156 -0.0001554162
v 0.0002726737 -0.004545933 -0.0001106037
v -1.56495E-05 -0.004749156 -0.0001554162
v 0.0003539565 0.001972696 -0.0001180897
v -1.529545E-05 0.002870914 -0.0002263983
v -0.0003403303 -0.005584683 -0.0001632245
v -1.56495E-05 -0.004749156 -0.0001554162
v -0.0003044054 -0.004545933 -0.0001134839
v 0.0003052786 -0.005584683 -0.0001486862
v -1.56495E-05 -0.004749156 -0.0001554162
v -0.0003403303 -0.005584683 -0.0001632245
v 0.0003074792 -0.005584683 0.0001632272
v -1.72016E-05 -0.004749156 0.0001554186
v 0.0002715555 -0.004545933 0.0001134863
v -0.0003381297 -0.005584683 0.0001486889
v -1.72016E-05 -0.004749156 0.0001554186
v 0.0003074792 -0.005584683 0.0001632272
v 0.0003922871 0.002878124 -0.0001529201
v -1.755566E-05 0.002870914 0.0002263983
v -1.529545E-05 0.002870914 -0.0002263983
v 0.0003912893 0.002878124 0.0001584356
v -0.0004181144 0.002878124 0.0001529201
v -0.0004241416 0.002878124 -0.0001584356
vt 0.355388 0.05200929
vt 0.6824164 0.009407701
vt 0.3643196 0.0094076
vt 0.6874338 0.05200929
vt 0.355388 0.05200929
vt 0.374493 0.3159052
vt 0.5193399 0.2694975
vt 0.6874338 0.05200929
vt 0.7221786 0.3189578
vt 0.6704 0.3159052
vt 0.7221786 0.3189578
vt 0.6874338 0.05200929
vt 0.7392124 0.05200929
vt 0.6874338 0.05200929
vt 0.6704 0.3159052
vt 0.5193399 0.2694975
vt 0.3077517 0.05200929
vt 0.374493 0.3159052
vt 0.3247225 0.3120896
vt 0.374493 0.3159052
vt 0.3077517 0.05200929
vt 0.355388 0.05200929
vt 0.3026184 0.9929832
vt 0.3435646 0.8394653
vt 0.3559802 0.9906069
vt 0.3435646 0.8394653
vt 0.3026184 0.9929832
vt 0.292417 0.8394653
vt 0.2962002 0.04833327
vt 0.2675726 0.04814279
vt 0.009603471 0.9929832
vt 0.06625522 0.8394653
vt 0.05605387 0.9929832
vt 0.02413829 0.8394653
vt 0.1028342 0.04814279
vt 0.292417 0.8394653
vt 0.1829862 0.01795365
vt 0.1793361 0.9665311
vt 0.1829862 0.01795365
vt 0.292417 0.8394653
vt 0.2673051 0.04814279
vt 0.06625522 0.8394653
vt 0.1829862 0.01795365
vt 0.1793361 0.9665311
vt 0.1829862 0.01795365
vt 0.06625522 0.8394653
vt 0.1028342 0.04814279
vt 0.1028342 0.04814279
vt 0.02413829 0.8394653
vt 0.07199281 0.05075684
vt 0.1793361 0.9665311
vt 0.292417 0.8394653
vt 0.3026184 0.9929832
vt 0.06625522 0.8394653
vt 0.1793361 0.9665311
vt 0.05605387 0.9929832
vt 0.1793361 0.9665311
vt 0.06625522 0.8394653
vt 0.05605387 0.9929832
vt 0.292417 0.8394653
vt 0.1793361 0.9665311
vt 0.3026184 0.9929832
vt 0.292417 0.8394653
vt 0.1829862 0.01795365
vt 0.2675726 0.04814279
vt 0.1829862 0.01795365
vt 0.292417 0.8394653
vt 0.1793361 0.9665311
vt 0.06625522 0.8394653
vt 0.1829862 0.01795365
vt 0.1028342 0.04814279
vt 0.1829862 0.01795365
vt 0.06625522 0.8394653
vt 0.1793361 0.9665311
vt 0.6874338 0.05200929
vt 0.5193399 0.2694975
vt 0.6704 0.3159052
vt 0.355388 0.05200929
vt 0.5193399 0.2694975
vt 0.6874338 0.05200929
vt 0.355388 0.05200929
vt 0.5193399 0.2694975
vt 0.374493 0.3159052
vt 0.6874338 0.05200929
vt 0.5193399 0.2694975
vt 0.355388 0.05200929
vt 0.05605387 0.9929832
vt 0.1793361 0.9665311
vt 0.1793361 0.9665311
vt 0.05605387 0.9929832
vt 0.3026184 0.9929832
vt 0.3026184 0.9929832
vn 0 -1 0
vn 0 -1 0
vn 0 -1 0
vn 0 -1 0
vn 0.1256698 0.04028573 -0.9912539
vn 0.1256698 0.04028572 -0.9912539
vn 0.1256697 0.04028572 -0.9912539
vn -0.999501 0.03119125 -0.004987394
vn -0.999501 0.03119125 -0.004987394
vn -0.999501 0.03119124 -0.004987394
vn -0.9993893 0.03422599 0.007050867
vn -0.9993893 0.03422599 0.007050865
vn -0.9993893 0.03422599 0.007050866
vn -0.1256702 0.04028623 0.9912538
vn -0.1256702 0.04028623 0.9912538
vn -0.1256702 0.04028623 0.9912538
vn 0.999501 0.0311901 0.004987393
vn 0.999501 0.0311901 0.004987393
vn 0.999501 0.0311901 0.004987394
vn 0.9993893 0.03422483 -0.007050867
vn 0.9993893 0.03422483 -0.007050865
vn 0.9993893 0.03422483 -0.007050866
vn -0.9989418 -0.0417275 0.01933751
vn -0.9989418 -0.0417275 0.01933751
vn -0.9989418 -0.0417275 0.01933751
vn -0.9993969 -0.03436406 -0.004986596
vn -0.9993969 -0.03436406 -0.004986597
vn -0.9993969 -0.03436406 -0.004986597
vn -0.9999099 -0.01246266 -0.004989156
vn -0.9999099 -0.01246265 -0.004989434
vn 0.9990852 -0.04264606 0.003201704
vn 0.9990852 -0.04264606 0.003201705
vn 0.9990852 -0.04264606 0.003201705
vn 0.9991008 -0.04210415 0.004990084
vn 0.9999099 -0.0124623 0.004994125
vn -0.2515728 -0.009003482 -0.9677964
vn -0.2515728 -0.009003482 -0.9677964
vn -0.2515728 -0.009003481 -0.9677964
vn -0.1458287 -0.003075847 -0.9893051
vn -0.1458287 -0.003075847 -0.9893051
vn -0.1458287 -0.003075846 -0.9893051
vn 0.2515736 -0.009003166 0.9677963
vn 0.2515736 -0.009003166 0.9677963
vn 0.2515736 -0.009003166 0.9677963
vn 0.145828 -0.003075463 0.9893053
vn 0.145828 -0.003075463 0.9893053
vn 0.145828 -0.003075463 0.9893053
vn 0.9999099 -0.01246246 0.004989433
vn 0.9999099 -0.01246246 0.004989433
vn 0.9999099 -0.01246246 0.004989432
vn -0.1810204 -0.04405371 0.9824921
vn -0.1810204 -0.04405371 0.9824921
vn -0.1810204 -0.04405371 0.9824921
vn 0.164605 -0.04689045 0.9852444
vn 0.1646051 -0.04689045 0.9852444
vn 0.1646051 -0.04689045 0.9852444
vn 0.1780123 -0.04534982 -0.9829828
vn 0.1780123 -0.04534983 -0.9829828
vn 0.1780123 -0.04534982 -0.9829828
vn -0.1646046 -0.04689075 -0.9852445
vn -0.1646046 -0.04689075 -0.9852445
vn -0.1646046 -0.04689075 -0.9852445
vn -0.1556968 -0.003075533 0.9878001
vn -0.1556968 -0.003075533 0.9878001
vn -0.1556968 -0.003075533 0.9878001
vn -0.2612209 -0.009003153 0.9652371
vn -0.2612209 -0.009003153 0.9652371
vn -0.2612209 -0.009003153 0.9652371
vn 0.1556961 -0.003075814 -0.9878002
vn 0.1556961 -0.003075813 -0.9878002
vn 0.1556961 -0.003075813 -0.9878002
vn 0.2612209 -0.009003467 -0.9652371
vn 0.2612209 -0.009003467 -0.9652371
vn 0.2612209 -0.009003468 -0.9652371
vn -0.1080844 0.05127918 -0.9928184
vn -0.1080844 0.05127918 -0.9928184
vn -0.1080844 0.05127918 -0.9928184
vn 0.02251301 0.0005945677 -0.9997464
vn 0.02251302 0.0005945677 -0.9997464
vn 0.02251302 0.0005945677 -0.9997464
vn 0.108084 0.05127936 0.9928184
vn 0.108084 0.05127936 0.9928184
vn 0.108084 0.05127936 0.9928184
vn -0.02251301 0.0005949021 0.9997464
vn -0.02251302 0.000594902 0.9997464
vn -0.02251302 0.0005949021 0.9997464
vn -0.01767046 0.9998438 -8.820499E-05
vn -0.01767046 0.9998438 -8.8205E-05
vn -0.01767046 0.9998438 -8.8205E-05
vn -0.01764116 0.9998444 -5.653349E-05
vn 0.01757517 0.9998455 -0.0003402201
vn 0.01757517 0.9998455 -0.0003402201
g XiangZhuang_Skin03:polySurface8_0
f 3/3/3 2/2/2 1/1/1
f 4/4/4 1/1/1 2/2/2
f 7/7/7 6/6/6 5/5/5
f 10/10/10 9/9/9 8/8/8
f 13/13/13 12/12/12 11/11/11
f 16/16/16 15/15/15 14/14/14
f 19/19/19 18/18/18 17/17/17
f 22/22/22 21/21/21 20/20/20
f 25/25/25 24/24/24 23/23/23
f 28/28/28 27/27/27 26/26/26
f 26/26/26 29/29/29 28/28/28
f 30/30/30 28/28/28 29/29/29
f 33/33/33 32/32/32 31/31/31
f 34/34/34 31/31/31 32/32/32
f 32/32/32 35/35/35 34/34/34
f 38/38/38 37/37/37 36/36/36
f 41/41/41 40/40/40 39/39/39
f 44/44/44 43/43/43 42/42/42
f 47/47/47 46/46/46 45/45/45
f 50/50/50 49/49/49 48/48/48
f 53/53/53 52/52/52 51/51/51
f 56/56/56 55/55/55 54/54/54
f 59/59/59 58/58/58 57/57/57
f 62/62/62 61/61/61 60/60/60
f 65/65/65 64/64/64 63/63/63
f 68/68/68 67/67/67 66/66/66
f 71/71/71 70/70/70 69/69/69
f 74/74/74 73/73/73 72/72/72
f 77/77/77 76/76/76 75/75/75
f 80/80/80 79/79/79 78/78/78
f 83/83/83 82/82/82 81/81/81
f 86/86/86 85/85/85 84/84/84
f 89/89/89 88/88/88 87/87/87
f 90/90/90 87/87/87 88/88/88
f 88/88/88 89/89/89 91/91/91
f 92/92/92 91/91/91 89/89/89
