g Line001
v 0.00603315 -8.889905E-08 0.5501232
v -0.001262062 3.701011E-08 -0.2271664
v -0.02379841 3.671638E-08 -0.2253635
v -0.2563735 3.524775E-08 -0.2163491
v -0.2347386 -1.086802E-08 0.06670742
v -0.2365417 -4.317828E-08 0.2650264
v -0.1572137 -7.960093E-08 0.488587
v -0.268994 -7.842601E-08 0.4813754
v -0.02710294 -8.962535E-08 0.5545812
v -0.1716167 -1.013719E-07 0.6222162
v -0.06467061 -9.57973E-08 0.5879996
v -0.06459168 -1.014342E-07 0.6239538
v -0.3230811 8.665068E-08 -0.531858
v -0.2094979 8.958799E-08 -0.5498871
v -0.05805366 8.988169E-08 -0.5516899
v -0.1896658 -1.286543E-07 0.7896746
v -0.04654117 -1.070711E-07 0.6599081
v 0.004346483 -1.102303E-07 0.6765887
v 0.005048275 -1.286543E-07 0.7896746
v 0.1997624 -1.286543E-07 0.7896746
v 0.04751606 -1.075323E-07 0.6600285
v 0.06325014 -1.024437E-07 0.6287948
v 0.1859811 -1.021925E-07 0.6272531
v 0.06663878 -9.735505E-08 0.597561
v 0.03604243 -9.081253E-08 0.5574033
v 0.1745216 -8.018872E-08 0.4921948
v 0.2538496 -4.170996E-08 0.2560139
v 0.2394262 -8.811927E-09 0.05408722
v 0.2520465 3.377908E-08 -0.2073345
v 0.02127429 3.730384E-08 -0.2289693
v 0.05012082 8.90005E-08 -0.5462812
v 0.3115425 8.929423E-08 -0.5480841
v 0.1691128 9.135034E-08 -0.5607044
v 0.2863019 -7.872006E-08 0.4831803
v 0.2863019 -7.872006E-08 0.4831803
v 0.2863019 0.04696182 0.4831803
v 0.2538496 0.04696187 0.2560139
v 0.2538496 -4.170996E-08 0.2560139
v 0.1745216 -8.018872E-08 0.4921948
v 0.1745216 0.04696183 0.4921948
v 0.2863019 0.04696182 0.4831803
v 0.2863019 -7.872006E-08 0.4831803
v 0.1859811 -1.021925E-07 0.6272531
v 0.1859811 0.0469618 0.6272531
v 0.1745216 0.04696183 0.4921948
v 0.1745216 -8.018872E-08 0.4921948
v 0.1997624 -1.286543E-07 0.7896746
v 0.1997623 0.04696177 0.7896746
v 0.005048275 -1.286543E-07 0.7896746
v 0.005048277 0.04696177 0.7896746
v 0.1997623 0.04696177 0.7896746
v 0.1997624 -1.286543E-07 0.7896746
v -0.1896658 -1.286543E-07 0.7896746
v -0.1896658 0.04696177 0.7896746
v 0.02127429 3.730384E-08 -0.2289693
v 0.02127429 0.04696194 -0.2289693
v -0.00126206 0.04696194 -0.2271664
v -0.001262062 3.701011E-08 -0.2271664
v -0.02379841 0.04696194 -0.2253635
v -0.02379841 3.671638E-08 -0.2253635
v 0.05012082 8.90005E-08 -0.5462812
v 0.05012082 0.046962 -0.5462812
v 0.02127429 0.04696194 -0.2289693
v 0.02127429 3.730384E-08 -0.2289693
v 0.1691128 9.135034E-08 -0.5607044
v 0.1691127 0.04696199 -0.5607044
v 0.05012082 0.046962 -0.5462812
v 0.05012082 8.90005E-08 -0.5462812
v 0.3115425 8.929423E-08 -0.5480841
v 0.3115425 0.04696199 -0.5480841
v 0.1691127 0.04696199 -0.5607044
v 0.1691128 9.135034E-08 -0.5607044
v 0.2520465 3.377908E-08 -0.2073345
v 0.2520465 0.04696193 -0.2073345
v 0.3115425 0.04696199 -0.5480841
v 0.3115425 8.929423E-08 -0.5480841
v 0.2394262 -8.811927E-09 0.05408722
v 0.2394262 0.04696189 0.05408721
v 0.2520465 0.04696193 -0.2073345
v 0.2520465 3.377908E-08 -0.2073345
v 0.2538496 -4.170996E-08 0.2560139
v 0.2538496 0.04696187 0.2560139
v 0.2394262 0.04696189 0.05408721
v 0.2394262 -8.811927E-09 0.05408722
v -0.1716167 -1.013719E-07 0.6222162
v -0.1716167 0.0469618 0.6222162
v -0.1896658 0.04696177 0.7896746
v -0.1896658 -1.286543E-07 0.7896746
v -0.1572137 -7.960093E-08 0.488587
v -0.1572137 0.04696182 0.488587
v -0.268994 -7.842601E-08 0.4813754
v -0.2689941 0.04696182 0.4813753
v -0.1572137 0.04696182 0.488587
v -0.1572137 -7.960093E-08 0.488587
v -0.2365417 -4.317828E-08 0.2650264
v -0.2365417 0.04696187 0.2650264
v -0.2689941 0.04696182 0.4813753
v -0.268994 -7.842601E-08 0.4813754
v -0.2347386 -1.086802E-08 0.06670742
v -0.2347386 0.04696189 0.06670741
v -0.2365417 0.04696187 0.2650264
v -0.2365417 -4.317828E-08 0.2650264
v -0.3230811 8.665068E-08 -0.531858
v -0.3230811 0.04696198 -0.531858
v -0.2563735 0.04696194 -0.2163491
v -0.2563735 3.524775E-08 -0.2163491
v -0.2094979 8.958799E-08 -0.5498871
v -0.2094979 0.04696199 -0.5498871
v -0.3230811 0.04696198 -0.531858
v -0.3230811 8.665068E-08 -0.531858
v -0.2563735 3.524775E-08 -0.2163491
v -0.2563735 0.04696194 -0.2163491
v -0.2347386 0.04696189 0.06670741
v -0.2347386 -1.086802E-08 0.06670742
v -0.05805366 8.988169E-08 -0.5516899
v -0.05805366 0.04696199 -0.5516899
v -0.2094979 0.04696199 -0.5498871
v -0.2094979 8.958799E-08 -0.5498871
v -0.02379841 3.671638E-08 -0.2253635
v -0.02379841 0.04696194 -0.2253635
v -0.05805366 0.04696199 -0.5516899
v -0.05805366 8.988169E-08 -0.5516899
v 0.004346483 -1.102303E-07 0.6765887
v 0.004346484 0.0469618 0.6765887
v -0.04654117 0.0469618 0.6599081
v -0.04654117 -1.070711E-07 0.6599081
v -0.04654117 -1.070711E-07 0.6599081
v -0.04654117 0.0469618 0.6599081
v -0.06459168 0.04696181 0.6239538
v -0.06459168 -1.014342E-07 0.6239538
v -0.06467061 -9.57973E-08 0.5879996
v -0.06467061 0.04696181 0.5879996
v -0.02710293 0.04696181 0.5545812
v -0.02710294 -8.962535E-08 0.5545812
v -0.02710294 -8.962535E-08 0.5545812
v -0.02710293 0.04696181 0.5545812
v 0.006033151 0.04696181 0.5501232
v 0.00603315 -8.889905E-08 0.5501232
v 0.00603315 -8.889905E-08 0.5501232
v 0.006033151 0.04696181 0.5501232
v 0.03604243 0.04696181 0.5574033
v 0.03604243 -9.081253E-08 0.5574033
v 0.03604243 -9.081253E-08 0.5574033
v 0.03604243 0.04696181 0.5574033
v 0.06663878 0.04696181 0.5975609
v 0.06663878 -9.735505E-08 0.597561
v 0.06663878 -9.735505E-08 0.597561
v 0.06663878 0.04696181 0.5975609
v 0.06325014 0.0469618 0.6287948
v 0.06325014 -1.024437E-07 0.6287948
v 0.04751606 -1.075323E-07 0.6600285
v 0.04751606 0.0469618 0.6600285
v 0.004346484 0.0469618 0.6765887
v 0.004346483 -1.102303E-07 0.6765887
v -0.06459168 -1.014342E-07 0.6239538
v -0.06459168 0.04696181 0.6239538
v -0.06467061 0.04696181 0.5879996
v -0.06467061 -9.57973E-08 0.5879996
v 0.06325014 -1.024437E-07 0.6287948
v 0.06325014 0.0469618 0.6287948
v 0.04751606 0.0469618 0.6600285
v 0.04751606 -1.075323E-07 0.6600285
v -0.2094979 0.04696199 -0.5498871
v -0.05805366 0.04696199 -0.5516899
v -0.02379841 0.04696194 -0.2253635
v -0.3230811 0.04696198 -0.531858
v -0.2563735 0.04696194 -0.2163491
v 0.006033151 0.04696181 0.5501232
v -0.00126206 0.04696194 -0.2271664
v -0.2347386 0.04696189 0.06670741
v -0.2365417 0.04696187 0.2650264
v -0.1572137 0.04696182 0.488587
v -0.2689941 0.04696182 0.4813753
v -0.02710293 0.04696181 0.5545812
v -0.1716167 0.0469618 0.6222162
v -0.06467061 0.04696181 0.5879996
v -0.06459168 0.04696181 0.6239538
v -0.1896658 0.04696177 0.7896746
v -0.04654117 0.0469618 0.6599081
v 0.004346484 0.0469618 0.6765887
v 0.005048277 0.04696177 0.7896746
v 0.1997623 0.04696177 0.7896746
v 0.04751606 0.0469618 0.6600285
v 0.06325014 0.0469618 0.6287948
v 0.1859811 0.0469618 0.6272531
v 0.06663878 0.04696181 0.5975609
v 0.03604243 0.04696181 0.5574033
v 0.1745216 0.04696183 0.4921948
v 0.2538496 0.04696187 0.2560139
v 0.2394262 0.04696189 0.05408721
v 0.2520465 0.04696193 -0.2073345
v 0.02127429 0.04696194 -0.2289693
v 0.05012082 0.046962 -0.5462812
v 0.3115425 0.04696199 -0.5480841
v 0.1691127 0.04696199 -0.5607044
v 0.2863019 0.04696182 0.4831803
vt 0.2997901 0.7696691
vt 0.2945634 0.295216
vt 0.2626126 0.2963827
vt 0.1304151 0.2814344
vt 0.1459988 0.4617946
vt 0.1449966 0.5881736
vt 0.2035781 0.7154251
vt 0.1277609 0.7171973
vt 0.2786746 0.7725356
vt 0.1866338 0.8301747
vt 0.2547596 0.7938591
vt 0.2548362 0.8317549
vt 0.08976002 0.0848123
vt 0.1637921 0.07101911
vt 0.2405427 0.06975807
vt 0.1752652 0.913036
vt 0.266367 0.8546505
vt 0.29881 0.8652398
vt 0.2993438 0.9128811
vt 0.4200918 0.9127393
vt 0.3263104 0.8546555
vt 0.3363141 0.8347421
vt 0.4145225 0.833114
vt 0.3384497 0.799852
vt 0.3189224 0.7742846
vt 0.3923805 0.7182564
vt 0.454078 0.5820629
vt 0.4447359 0.4533972
vt 0.4559983 0.2867984
vt 0.3134069 0.2940491
vt 0.3268552 0.07095741
vt 0.491095 0.07516357
vt 0.4028847 0.06889281
vt 0.4723661 0.7221026
vt 0.7943504 0.1047646
vt 0.8250456 0.1047646
vt 0.8250456 0.1280803
vt 0.7943504 0.1280803
vt 0.7943504 0.1850741
vt 0.8250456 0.1850741
vt 0.8250456 0.1047646
vt 0.7943504 0.1047646
vt 0.7943503 0.1768409
vt 0.8250456 0.1768409
vt 0.8250456 0.1850741
vt 0.7943504 0.1850741
vt 0.7943503 0.1669397
vt 0.8250455 0.1669397
vt 0.7943503 0.3068336
vt 0.8250455 0.3068336
vt 0.8250455 0.1669397
vt 0.7943503 0.1669397
vt 0.7943503 0.4467275
vt 0.8250455 0.4467275
vt 0.7943504 0.2951759
vt 0.8250456 0.2951759
vt 0.8250456 0.3113673
vt 0.7943504 0.3113673
vt 0.8250456 0.3275588
vt 0.7943504 0.3275588
vt 0.7943504 0.2744509
vt 0.8250458 0.2744509
vt 0.8250456 0.2951759
vt 0.7943504 0.2951759
vt 0.7943504 0.1889602
vt 0.8250456 0.1889602
vt 0.8250458 0.2744509
vt 0.7943504 0.2744509
vt 0.7943504 0.08663031
vt 0.8250456 0.08663031
vt 0.8250456 0.1889602
vt 0.7943504 0.1889602
vt 0.7943504 0.1293757
vt 0.8250456 0.1293757
vt 0.8250456 0.08663031
vt 0.7943504 0.08663031
vt 0.7943504 0.1384429
vt 0.8250456 0.1384429
vt 0.8250456 0.1293757
vt 0.7943504 0.1293757
vt 0.7943504 0.1280803
vt 0.8250456 0.1280803
vt 0.8250456 0.1384429
vt 0.7943504 0.1384429
vt 0.7943503 0.43376
vt 0.8250456 0.43376
vt 0.8250455 0.4467275
vt 0.7943503 0.4467275
vt 0.7943504 0.4234121
vt 0.8250456 0.4234121
vt 0.7943504 0.5037216
vt 0.8250456 0.5037216
vt 0.8250456 0.4234121
vt 0.7943504 0.4234121
vt 0.7943504 0.4804059
vt 0.8250456 0.4804059
vt 0.8250456 0.5037216
vt 0.7943504 0.5037216
vt 0.7943504 0.4791104
vt 0.8250456 0.4791104
vt 0.8250456 0.4804059
vt 0.7943504 0.4804059
vt 0.7943504 0.5425808
vt 0.8250456 0.5425808
vt 0.8250456 0.4946542
vt 0.7943504 0.4946542
vt 0.7943504 0.460976
vt 0.8250456 0.460976
vt 0.8250456 0.5425808
vt 0.7943504 0.5425808
vt 0.7943504 0.4946542
vt 0.8250456 0.4946542
vt 0.8250456 0.4791104
vt 0.7943504 0.4791104
vt 0.7943504 0.3521697
vt 0.8250456 0.3521697
vt 0.8250456 0.460976
vt 0.7943504 0.460976
vt 0.7943504 0.3275588
vt 0.8250456 0.3275588
vt 0.8250456 0.3521697
vt 0.7943504 0.3521697
vt 0.7943503 0.3073378
vt 0.8250456 0.3073378
vt 0.8250456 0.3438985
vt 0.7943503 0.3438985
vt 0.7943503 0.3438985
vt 0.8250456 0.3438985
vt 0.8250456 0.356867
vt 0.7943503 0.356867
vt 0.7943503 0.3569237
vt 0.8250456 0.3569237
vt 0.8250456 0.3299329
vt 0.7943504 0.329933
vt 0.7943504 0.329933
vt 0.8250456 0.3299329
vt 0.8250456 0.306126
vt 0.7943504 0.306126
vt 0.7943504 0.306126
vt 0.8250456 0.306126
vt 0.8250456 0.2845656
vt 0.7943504 0.2845656
vt 0.7943504 0.2845656
vt 0.8250456 0.2845656
vt 0.8250456 0.2625834
vt 0.7943503 0.2625834
vt 0.7943503 0.2625834
vt 0.8250456 0.2625834
vt 0.8250456 0.265018
vt 0.7943503 0.265018
vt 0.7943503 0.2763223
vt 0.8250456 0.2763223
vt 0.8250456 0.3073378
vt 0.7943503 0.3073378
vt 0.7943503 0.356867
vt 0.8250456 0.356867
vt 0.8250456 0.3569237
vt 0.7943503 0.3569237
vt 0.7943503 0.265018
vt 0.8250456 0.265018
vt 0.8250456 0.2763223
vt 0.7943503 0.2763223
vt 0.5799342 0.06885443
vt 0.6706675 0.06759427
vt 0.6927354 0.2820126
vt 0.5162256 0.08042677
vt 0.5589654 0.281434
vt 0.7180933 0.7696696
vt 0.7128696 0.2808454
vt 0.5679089 0.4617943
vt 0.5632976 0.5881733
vt 0.6168273 0.7305777
vt 0.5442923 0.7184854
vt 0.6969741 0.7725366
vt 0.6077479 0.8157461
vt 0.6730588 0.7938599
vt 0.6731365 0.8167691
vt 0.6008293 0.9168485
vt 0.6846698 0.8474336
vt 0.7171174 0.8580213
vt 0.717653 0.9166855
vt 0.8383996 0.9165453
vt 0.7446193 0.8474379
vt 0.7546223 0.819755
vt 0.8276243 0.8186823
vt 0.7567577 0.7998517
vt 0.7372304 0.7742844
vt 0.8143255 0.7220813
vt 0.8685852 0.5820624
vt 0.8592427 0.4533967
vt 0.8685324 0.2867979
vt 0.73156 0.2796777
vt 0.7497042 0.07600792
vt 0.9061903 0.07466342
vt 0.8211907 0.06672776
vt 0.886105 0.7112576
vn 0 -1 -1.628137E-07
vn 0 -1 -1.628143E-07
vn 0 -1 -1.627505E-07
vn 0 -1 -1.627505E-07
vn 0 -1 -1.627505E-07
vn 0 -1 -1.627505E-07
vn 0 -1 -1.627505E-07
vn 0 -1 -1.627505E-07
vn 0 -1 -1.627505E-07
vn 0 -1 -1.633845E-07
vn 0 -1 -1.627505E-07
vn 0 -1 -1.634329E-07
vn 0 -1 -1.627505E-07
vn 0 -1 -1.627505E-07
vn 0 -1 -1.627505E-07
vn 0 -1 -1.63949E-07
vn 0 -1 -1.63949E-07
vn 0 -1 -1.634298E-07
vn 0 -1 -1.634328E-07
vn 0 -1 -1.629207E-07
vn 0 -1 -1.629207E-07
vn 0 -1 -1.629007E-07
vn 0 -1 -1.628977E-07
vn 0 -1 -1.628726E-07
vn 0 -1 -1.628726E-07
vn 0 -1 -1.628726E-07
vn 0 -1 -1.628726E-07
vn 0 -1 -1.628725E-07
vn 0 -1 -1.628725E-07
vn 0 -1 -1.628726E-07
vn 0 -1 -1.628726E-07
vn 0 -1 -1.628726E-07
vn 0 -1 -1.628726E-07
vn 0 -1 -1.628726E-07
vn 0.9899495 1.681423E-07 -0.1414213
vn 0.9899495 1.681423E-07 -0.1414213
vn 0.9899495 1.681423E-07 -0.1414213
vn 0.9899495 1.681423E-07 -0.1414213
vn 0.08038393 0 0.9967639
vn 0.08038393 0 0.9967639
vn 0.08038393 0 0.9967639
vn 0.08038393 0 0.9967639
vn 0.9964197 0 -0.08454479
vn 0.9964197 0 -0.08454479
vn 0.9964197 0 -0.08454479
vn 0.9964197 0 -0.08454479
vn 0.9964197 2.055592E-07 -0.08454464
vn 0.9964197 2.055592E-07 -0.08454464
vn 0 0 1
vn 0 0 1
vn 0 0 1
vn 0 0 1
vn 0 0 1
vn 0 0 1
vn -0.07974495 0 -0.9968153
vn -0.07974495 0 -0.9968153
vn -0.07974495 0 -0.9968153
vn -0.07974495 0 -0.9968153
vn -0.07974496 0 -0.9968153
vn -0.07974496 0 -0.9968153
vn -0.9958932 0 -0.09053574
vn -0.9958932 0 -0.09053575
vn -0.9958932 0 -0.09053574
vn -0.9958932 0 -0.09053575
vn -0.120331 0 -0.9927338
vn -0.120331 0 -0.9927338
vn -0.120331 0 -0.9927338
vn -0.120331 0 -0.9927338
vn 0.0882615 0 -0.9960974
vn 0.0882615 0 -0.9960974
vn 0.0882615 0 -0.9960974
vn 0.0882615 0 -0.9960974
vn 0.9850968 2.113491E-07 0.172001
vn 0.9850968 2.113491E-07 0.172001
vn 0.9850968 2.113491E-07 0.172001
vn 0.9850968 2.113491E-07 0.172001
vn 0.9988368 0 0.0482197
vn 0.9988368 0 0.04821969
vn 0.9988368 0 0.04821969
vn 0.9988368 0 0.0482197
vn 0.9974586 0 -0.0712476
vn 0.9974586 0 -0.0712476
vn 0.9974586 0 -0.0712476
vn 0.9974586 0 -0.0712476
vn -0.9942416 0 -0.1071621
vn -0.9942416 0 -0.1071621
vn -0.9942416 0 -0.1071621
vn -0.9942416 0 -0.1071621
vn -0.9942416 0 -0.107162
vn -0.9942416 0 -0.107162
vn -0.06438205 7.977004E-07 0.9979253
vn -0.06438205 7.977003E-07 0.9979253
vn -0.06438205 7.977004E-07 0.9979253
vn -0.06438205 7.977003E-07 0.9979253
vn -0.9889364 -4.548456E-07 -0.1483405
vn -0.9889364 -4.548456E-07 -0.1483405
vn -0.9889364 -4.548456E-07 -0.1483405
vn -0.9889364 -4.548456E-07 -0.1483405
vn -0.9999588 -2.038269E-07 -0.009091457
vn -0.9999588 -2.038269E-07 -0.009091458
vn -0.9999588 -2.038269E-07 -0.009091458
vn -0.9999588 -2.038269E-07 -0.009091458
vn -0.9783715 -5.793411E-07 0.2068557
vn -0.9783715 -5.793411E-07 0.2068557
vn -0.9783715 -5.793412E-07 0.2068557
vn -0.9783715 -5.793411E-07 0.2068557
vn -0.156767 0 -0.9876356
vn -0.156767 0 -0.9876356
vn -0.156767 0 -0.9876356
vn -0.156767 0 -0.9876356
vn -0.9970918 -1.931435E-07 0.07621082
vn -0.9970918 -1.931435E-07 0.07621082
vn -0.9970918 -1.931435E-07 0.07621082
vn -0.9970918 -1.931435E-07 0.07621083
vn -0.01190338 0 -0.9999292
vn -0.01190338 0 -0.9999292
vn -0.01190338 0 -0.9999292
vn -0.01190338 0 -0.9999292
vn 0.9945356 0 -0.1043987
vn 0.9945356 0 -0.1043987
vn 0.9945356 0 -0.1043987
vn 0.9945356 0 -0.1043987
vn 0.3114853 0 -0.950251
vn 0.3114853 0 -0.950251
vn 0.3114853 0 -0.950251
vn 0.3114853 0 -0.950251
vn 0.8936962 0 -0.4486725
vn 0.8936962 0 -0.4486725
vn 0.8936962 0 -0.4486725
vn 0.8936962 0 -0.4486725
vn 0.6646408 0 0.7471631
vn 0.6646408 0 0.7471631
vn 0.6646408 0 0.7471631
vn 0.6646408 0 0.747163
vn 0.1333345 3.947948E-07 0.9910711
vn 0.1333345 3.947948E-07 0.9910711
vn 0.1333345 3.947948E-07 0.9910711
vn 0.1333345 3.947948E-07 0.9910711
vn -0.235755 7.97376E-07 0.9718125
vn -0.2357551 7.97376E-07 0.9718125
vn -0.235755 7.97376E-07 0.9718125
vn -0.2357551 7.97376E-07 0.9718125
vn -0.7954317 5.128597E-07 0.6060434
vn -0.7954317 5.128597E-07 0.6060434
vn -0.7954317 5.128597E-07 0.6060434
vn -0.7954317 5.128597E-07 0.6060433
vn -0.9941661 0 -0.1078597
vn -0.9941661 0 -0.1078597
vn -0.9941661 0 -0.1078597
vn -0.9941661 0 -0.1078597
vn -0.3581585 0 -0.9336608
vn -0.3581585 0 -0.9336608
vn -0.3581585 0 -0.9336608
vn -0.3581585 0 -0.9336608
vn 0.9999976 0 -0.002195443
vn 0.9999976 0 -0.002195443
vn 0.9999976 0 -0.002195443
vn 0.9999976 0 -0.002195443
vn -0.8930827 0 -0.4498927
vn -0.8930827 0 -0.4498927
vn -0.8930827 0 -0.4498926
vn -0.8930827 0 -0.4498926
vn 0 1 1.610712E-07
vn 0 1 1.610712E-07
vn 0 1 1.610712E-07
vn 0 1 1.610712E-07
vn 0 1 1.610712E-07
vn 0 1 1.636289E-07
vn 0 1 1.636532E-07
vn 0 1 1.610712E-07
vn 0 1 1.610712E-07
vn 0 1 1.610712E-07
vn 0 1 1.610712E-07
vn 0 1 1.610712E-07
vn 0 1 1.88726E-07
vn 0 1 1.610712E-07
vn 0 1 1.908348E-07
vn 0 1 2.133479E-07
vn 0 1 2.133479E-07
vn 0 1 2.05484E-07
vn 0 1 2.055289E-07
vn 0 1 1.977714E-07
vn 0 1 1.977714E-07
vn 0 1 1.846137E-07
vn 0 1 1.826211E-07
vn 0 1 1.660135E-07
vn 0 1 1.660135E-07
vn 0 1 1.660135E-07
vn 0 1 1.660135E-07
vn 0 1 1.660135E-07
vn 0 1 1.660135E-07
vn 0 1 1.660135E-07
vn 0 1 1.660135E-07
vn 0 1 1.660135E-07
vn 0 1 1.660135E-07
vn 0 1 1.660135E-07
g Line001_0
f 3/3/3 2/2/2 1/1/1
f 1/1/1 4/4/4 3/3/3
f 1/1/1 5/5/5 4/4/4
f 1/1/1 6/6/6 5/5/5
f 1/1/1 7/7/7 6/6/6
f 7/7/7 8/8/8 6/6/6
f 1/1/1 9/9/9 7/7/7
f 9/9/9 10/10/10 7/7/7
f 9/9/9 11/11/11 10/10/10
f 11/11/11 12/12/12 10/10/10
f 3/3/3 4/4/4 13/13/13
f 3/3/3 13/13/13 14/14/14
f 14/14/14 15/15/15 3/3/3
f 16/16/16 10/10/10 12/12/12
f 12/12/12 17/17/17 16/16/16
f 17/17/17 18/18/18 16/16/16
f 18/18/18 19/19/19 16/16/16
f 20/20/20 19/19/19 18/18/18
f 20/20/20 18/18/18 21/21/21
f 20/20/20 21/21/21 22/22/22
f 22/22/22 23/23/23 20/20/20
f 23/23/23 22/22/22 24/24/24
f 23/23/23 24/24/24 25/25/25
f 26/26/26 23/23/23 25/25/25
f 26/26/26 25/25/25 1/1/1
f 27/27/27 26/26/26 1/1/1
f 28/28/28 27/27/27 1/1/1
f 29/29/29 28/28/28 1/1/1
f 29/29/29 1/1/1 2/2/2
f 29/29/29 2/2/2 30/30/30
f 29/29/29 30/30/30 31/31/31
f 32/32/32 29/29/29 31/31/31
f 31/31/31 33/33/33 32/32/32
f 27/27/27 34/34/34 26/26/26
f 37/37/37 36/36/36 35/35/35
f 38/38/38 37/37/37 35/35/35
f 41/41/41 40/40/40 39/39/39
f 42/42/42 41/41/41 39/39/39
f 45/45/45 44/44/44 43/43/43
f 46/46/46 45/45/45 43/43/43
f 43/43/43 44/44/44 47/47/47
f 44/44/44 48/48/48 47/47/47
f 51/51/51 50/50/50 49/49/49
f 52/52/52 51/51/51 49/49/49
f 49/49/49 50/50/50 53/53/53
f 50/50/50 54/54/54 53/53/53
f 57/57/57 56/56/56 55/55/55
f 58/58/58 57/57/57 55/55/55
f 59/59/59 57/57/57 58/58/58
f 60/60/60 59/59/59 58/58/58
f 63/63/63 62/62/62 61/61/61
f 64/64/64 63/63/63 61/61/61
f 67/67/67 66/66/66 65/65/65
f 68/68/68 67/67/67 65/65/65
f 71/71/71 70/70/70 69/69/69
f 72/72/72 71/71/71 69/69/69
f 75/75/75 74/74/74 73/73/73
f 76/76/76 75/75/75 73/73/73
f 79/79/79 78/78/78 77/77/77
f 80/80/80 79/79/79 77/77/77
f 83/83/83 82/82/82 81/81/81
f 84/84/84 83/83/83 81/81/81
f 87/87/87 86/86/86 85/85/85
f 88/88/88 87/87/87 85/85/85
f 85/85/85 86/86/86 89/89/89
f 86/86/86 90/90/90 89/89/89
f 93/93/93 92/92/92 91/91/91
f 94/94/94 93/93/93 91/91/91
f 97/97/97 96/96/96 95/95/95
f 98/98/98 97/97/97 95/95/95
f 101/101/101 100/100/100 99/99/99
f 102/102/102 101/101/101 99/99/99
f 105/105/105 104/104/104 103/103/103
f 106/106/106 105/105/105 103/103/103
f 109/109/109 108/108/108 107/107/107
f 110/110/110 109/109/109 107/107/107
f 113/113/113 112/112/112 111/111/111
f 114/114/114 113/113/113 111/111/111
f 117/117/117 116/116/116 115/115/115
f 118/118/118 117/117/117 115/115/115
f 121/121/121 120/120/120 119/119/119
f 122/122/122 121/121/121 119/119/119
f 125/125/125 124/124/124 123/123/123
f 126/126/126 125/125/125 123/123/123
f 129/129/129 128/128/128 127/127/127
f 130/130/130 129/129/129 127/127/127
f 133/133/133 132/132/132 131/131/131
f 134/134/134 133/133/133 131/131/131
f 137/137/137 136/136/136 135/135/135
f 138/138/138 137/137/137 135/135/135
f 141/141/141 140/140/140 139/139/139
f 142/142/142 141/141/141 139/139/139
f 145/145/145 144/144/144 143/143/143
f 146/146/146 145/145/145 143/143/143
f 149/149/149 148/148/148 147/147/147
f 150/150/150 149/149/149 147/147/147
f 153/153/153 152/152/152 151/151/151
f 154/154/154 153/153/153 151/151/151
f 157/157/157 156/156/156 155/155/155
f 158/158/158 157/157/157 155/155/155
f 161/161/161 160/160/160 159/159/159
f 162/162/162 161/161/161 159/159/159
f 165/165/165 164/164/164 163/163/163
f 163/163/163 166/166/166 165/165/165
f 166/166/166 167/167/167 165/165/165
f 165/165/165 167/167/167 168/168/168
f 168/168/168 169/169/169 165/165/165
f 167/167/167 170/170/170 168/168/168
f 170/170/170 171/171/171 168/168/168
f 171/171/171 172/172/172 168/168/168
f 171/171/171 173/173/173 172/172/172
f 172/172/172 174/174/174 168/168/168
f 172/172/172 175/175/175 174/174/174
f 175/175/175 176/176/176 174/174/174
f 175/175/175 177/177/177 176/176/176
f 177/177/177 175/175/175 178/178/178
f 178/178/178 179/179/179 177/177/177
f 178/178/178 180/180/180 179/179/179
f 178/178/178 181/181/181 180/180/180
f 180/180/180 181/181/181 182/182/182
f 183/183/183 180/180/180 182/182/182
f 184/184/184 183/183/183 182/182/182
f 182/182/182 185/185/185 184/184/184
f 186/186/186 184/184/184 185/185/185
f 187/187/187 186/186/186 185/185/185
f 187/187/187 185/185/185 188/188/188
f 168/168/168 187/187/187 188/188/188
f 168/168/168 188/188/188 189/189/189
f 168/168/168 189/189/189 190/190/190
f 168/168/168 190/190/190 191/191/191
f 169/169/169 168/168/168 191/191/191
f 192/192/192 169/169/169 191/191/191
f 193/193/193 192/192/192 191/191/191
f 193/193/193 191/191/191 194/194/194
f 194/194/194 195/195/195 193/193/193
f 188/188/188 196/196/196 189/189/189
