g AntNoseCoin
v -0.02794639 0.006469908 0.02879592
v -0.02489164 0.006472313 0.02555987
v -0.02165096 0.006472318 0.03318644
v -0.02429811 0.006469908 0.03738172
v -0.008375056 0.006472318 0.03980276
v -0.009352427 0.006469912 0.04483021
v 0.00129089 0.00647232 0.0407331
v 0.001529252 0.006469912 0.04587756
v 0.009743154 0.00647232 0.0389219
v 0.0110446 0.006469912 0.04383856
v 0.01940752 0.006472318 0.03267393
v 0.0219245 0.006469912 0.03680475
v -0.02871596 0.006469905 0.01597219
v -0.02557523 0.006472311 0.01416885
v 0.02544022 0.006472318 0.02080991
v 0.02871596 0.006469912 0.02344853
v 0.0251147 0.006472318 0.01084832
v 0.02834949 0.006469912 0.01223402
v -0.0282037 0.0064699 0.005552891
v -0.0251202 0.006472311 0.00491362
v 0.02340944 0.006472313 -0.003339413
v 0.02642976 0.006469912 -0.003738168
v -0.02599729 0.006469905 -0.008835675
v -0.0231603 0.006472311 -0.00786741
v 0.02091222 0.006472313 -0.01752714
v 0.02361845 0.006469908 -0.01971036
v -0.01985597 0.0064699 -0.02614901
v -0.01770511 0.006472306 -0.02324645
v -0.01568144 0.006469898 -0.03322915
v -0.01399697 0.006472306 -0.02953557
v 0.01907655 0.006472311 -0.02775874
v 0.0215519 0.006469905 -0.03122883
v 0.01167403 0.006472311 -0.03819263
v 0.01321833 0.0064699 -0.04297505
v 0.004309557 0.006472306 -0.04077086
v 0.004927591 0.0064699 -0.04587756
v -0.002633374 0.006472306 -0.04016713
v -0.002888586 0.006469898 -0.04519789
v -0.01045514 0.0064699 -0.04117538
v -0.009354568 0.006472306 -0.03659402
v -0.01405996 0.006472752 -0.01832736
v -0.01835234 0.006472752 -0.006226455
v -0.01989448 0.006472752 0.003830222
v -0.02025251 0.006472757 0.01111264
v -0.01971464 0.006472757 0.0200756
v -0.01716473 0.006472759 0.02607652
v -0.006718663 0.006472759 0.03128253
v 0.0008869284 0.006472764 0.03201457
v 0.00753754 0.006472764 0.03058944
v 0.01514188 0.006472759 0.02567326
v 0.01988868 0.006472764 0.01633812
v 0.01963255 0.006472759 0.008499903
v 0.01829077 0.006472757 -0.002663627
v 0.01632585 0.006472757 -0.01382715
v 0.01488146 0.006472757 -0.02187783
v 0.007057518 0.006472752 -0.03274629
v 0.003784552 0.006472752 -0.03433036
v -0.0003646472 0.006472752 -0.03307418
v -0.007489386 0.006472752 -0.02882982
v -0.01114223 0.006472752 -0.02327591
v -0.0006042608 0.006472757 -0.0001690274
v 0.005719208 0.006472752 -0.02580095
v 0.00758389 0.006472757 -0.02873315
v 0.005368271 0.005688677 -0.03135669
v 0.003502832 0.005688677 -0.03225952
v 0.001137981 0.005688677 -0.03154357
v 0.005668279 0.005688681 -0.02906938
v 0.004605496 0.005688681 -0.02739816
v 0.002791388 0.006472752 -0.0253473
v -0.0003231236 0.006472752 -0.02672582
v -0.001213108 0.006472752 -0.02936197
v 0.002936774 0.005688681 -0.0271396
v 0.001161647 0.005688681 -0.0279253
v 0.0006543973 0.005688677 -0.02942778
v -0.02794639 0.006469908 0.02879592
v -0.02429811 0.006469908 0.03738172
v -0.02165096 -0.001597886 0.03318644
v -0.02489164 -0.001597886 0.02555987
v -0.008375056 -0.001597886 0.03980276
v -0.009352427 0.006469912 0.04483021
v 0.00129089 -0.001597886 0.0407331
v 0.001529252 0.006469912 0.04587756
v 0.009743154 -0.001597886 0.0389219
v 0.0110446 0.006469912 0.04383856
v 0.01940751 -0.001597886 0.03267393
v 0.0219245 0.006469912 0.03680475
v -0.02871596 0.006469905 0.01597219
v -0.02557523 -0.001597886 0.01416885
v 0.02544021 -0.001597886 0.02080991
v 0.02871596 0.006469912 0.02344853
v 0.02511469 -0.001597886 0.01084831
v 0.02834949 0.006469912 0.01223402
v -0.0282037 0.0064699 0.005552891
v -0.02512021 -0.001597886 0.00491362
v 0.02340944 -0.001597886 -0.003339415
v 0.02642976 0.006469912 -0.003738168
v -0.02599729 0.006469905 -0.008835675
v -0.0231603 -0.001597886 -0.007867413
v 0.02091222 -0.001597881 -0.01752714
v 0.02361845 0.006469908 -0.01971036
v -0.01985597 0.0064699 -0.02614901
v -0.01770511 -0.001597886 -0.02324645
v -0.01568144 0.006469898 -0.03322915
v -0.01399697 -0.001597886 -0.02953557
v 0.01907654 -0.001597886 -0.02775874
v 0.0215519 0.006469905 -0.03122883
v 0.01167403 -0.001597886 -0.03819264
v 0.01321833 0.0064699 -0.04297505
v 0.004309557 -0.001597886 -0.04077087
v 0.004927591 0.0064699 -0.04587756
v -0.002633374 -0.001597886 -0.04016713
v -0.002888586 0.006469898 -0.04519789
v -0.01045514 0.0064699 -0.04117538
v -0.009354568 -0.001597886 -0.03659403
v -0.01405996 -0.004411015 -0.01832736
v -0.01835234 -0.00500268 -0.006226455
v -0.01989448 -0.00500268 0.003830221
v -0.02025252 -0.005002675 0.01111264
v -0.01971464 -0.00500268 0.0200756
v -0.01716473 -0.00500268 0.02607652
v -0.006718662 -0.00500268 0.03128254
v 0.000886929 -0.005002675 0.03201457
v 0.007537541 -0.005002675 0.03058944
v 0.01514188 -0.005002675 0.02567326
v 0.01988868 -0.005002675 0.01633812
v 0.01963254 -0.005002675 0.008499903
v 0.01829078 -0.005002675 -0.002663628
v 0.01632585 -0.005655737 -0.01382715
v 0.01488146 -0.004411006 -0.02187783
v 0.01028896 -0.0029709 -0.03540453
v 0.004323469 -0.002970896 -0.03829174
v -0.003239097 -0.002970896 -0.03600216
v -0.007489386 -0.004411011 -0.02882982
v -0.01114223 -0.004411011 -0.02327592
v -0.0006042594 -0.006472759 -0.01385732
v 0.007849682 -0.004411006 -0.02274555
v 0.01124836 -0.004411011 -0.02808997
v 0.008204247 -0.0003227234 -0.02862427
v 0.006079876 -0.0003227234 -0.0252837
v 0.00251327 -0.004411011 -0.02191872
v -0.003163413 -0.004411011 -0.02443129
v -0.004785549 -0.0029709 -0.02923607
v 0.002744305 -0.0003227234 -0.02476688
v -0.0008039546 -0.0003227234 -0.02633738
v -0.001817884 -0.0003227282 -0.02934066
v 0.007604568 -0.0003227234 -0.0331963
v 0.003875785 -0.0003227234 -0.03500098
v -0.0008512613 -0.0003227234 -0.03356985
v 0.003502832 0.005688677 -0.03225952
v 0.005368271 0.005688677 -0.03135669
v 0.001137981 0.005688677 -0.03154357
v 0.002936774 0.005688681 -0.0271396
v 0.004605496 0.005688681 -0.02739816
v 0.001161647 0.005688681 -0.0279253
v 0.005668279 0.005688681 -0.02906938
v 0.0006543973 0.005688677 -0.02942778
vt 0.9656667 0.8535761
vt 0.9429609 0.8269644
vt 0.9145083 0.8855603
vt 0.9336349 0.9195418
vt 0.8076677 0.9322634
vt 0.8133565 0.9721187
vt 0.7314132 0.9357525
vt 0.7275117 0.9760466
vt 0.6657694 0.9181978
vt 0.6536123 0.9562842
vt 0.5923599 0.8653334
vt 0.5709694 0.8967716
vt 0.9767675 0.7532027
vt 0.9528217 0.7378051
vt 0.5496797 0.7698091
vt 0.5229209 0.7892328
vt 0.5561649 0.6917293
vt 0.5302222 0.7013335
vt 0.9768593 0.6712021
vt 0.9529037 0.6649652
vt 0.5751402 0.5810124
vt 0.5515844 0.576692
vt 0.9652269 0.5573694
vt 0.9425709 0.5638487
vt 0.6003101 0.4705982
vt 0.5799211 0.4523902
vt 0.9238858 0.4190071
vt 0.905847 0.440943
vt 0.8939275 0.3617511
vt 0.8792384 0.3900832
vt 0.6187297 0.3909692
vt 0.6006649 0.3627478
vt 0.6809363 0.3118829
vt 0.6707084 0.2737391
vt 0.7398551 0.2945058
vt 0.7370237 0.2541888
vt 0.7942065 0.3020346
vt 0.7981981 0.2626471
vt 0.8560411 0.297269
vt 0.8455889 0.3328004
vt 0.8752758 0.4781273
vt 0.9041743 0.574832
vt 0.9123052 0.6543955
vt 0.9122404 0.7117099
vt 0.9044805 0.7818647
vt 0.8820933 0.8279706
vt 0.7980261 0.8647197
vt 0.7380252 0.8674651
vt 0.6863734 0.8536518
vt 0.6286119 0.8120543
vt 0.5950291 0.7368904
vt 0.6001318 0.6754536
vt 0.6150633 0.5883377
vt 0.6348683 0.5014636
vt 0.6493338 0.4388224
vt 0.7149395 0.3564478
vt 0.7414217 0.345155
vt 0.773668 0.3568087
vt 0.8279204 0.3930459
vt 0.85435 0.4381138
vt 0.7624363 0.6153841
vt 0.7227355 0.4117546
vt 0.7090482 0.3879086
vt 0.728424 0.3686198
vt 0.7428348 0.362535
vt 0.7605073 0.3688717
vt 0.7253069 0.3858118
vt 0.7327487 0.3987352
vt 0.7457201 0.4165506
vt 0.7708758 0.4068456
vt 0.7791052 0.3864194
vt 0.7451873 0.4012386
vt 0.7589133 0.3960039
vt 0.7633286 0.385031
vt 0.06051151 0.6090952
vt 0.1001149 0.6759803
vt 0.1390296 0.6236315
vt 0.113397 0.5724116
vt 0.2322131 0.668691
vt 0.2171792 0.7339699
vt 0.2997959 0.6737214
vt 0.3053958 0.7408747
vt 0.3580405 0.6586756
vt 0.3826707 0.7209105
vt 0.4229507 0.6118711
vt 0.4664561 0.6605594
vt 0.0419491 0.5104686
vt 0.101891 0.492134
vt 0.4628177 0.5281764
vt 0.5196141 0.5559675
vt 0.4629742 0.4580589
vt 0.524666 0.4678467
vt 0.0400264 0.4288835
vt 0.1012444 0.4253336
vt 0.4518219 0.3565507
vt 0.5125771 0.3477635
vt 0.05262316 0.3185273
vt 0.1114313 0.3328564
vt 0.4329923 0.2549084
vt 0.4892995 0.2282762
vt 0.09398627 0.1856245
vt 0.145192 0.2206642
vt 0.1279559 0.1264634
vt 0.1703617 0.1737367
vt 0.4133691 0.1837895
vt 0.4608088 0.1409318
vt 0.3609534 0.1106019
vt 0.3886469 0.05165456
vt 0.3082923 0.09198208
vt 0.3151076 0.02638929
vt 0.2577855 0.09995933
vt 0.2456157 0.03389125
vt 0.1793186 0.06629522
vt 0.2072046 0.1242399
vt 0.1758007 0.2565652
vt 0.1519786 0.3445727
vt 0.1448611 0.4163871
vt 0.1450676 0.4677414
vt 0.1522238 0.530109
vt 0.1709057 0.5705662
vt 0.243593 0.6044359
vt 0.2945489 0.6079534
vt 0.3381938 0.5967953
vt 0.3882906 0.5613139
vt 0.4191867 0.4957981
vt 0.4172306 0.4412737
vt 0.4079211 0.3627498
vt 0.3927596 0.2849278
vt 0.3830739 0.2290483
vt 0.3550206 0.1305793
vt 0.3092619 0.1079596
vt 0.255592 0.1302652
vt 0.2147679 0.1800968
vt 0.1935047 0.2206276
vt 0.2733504 0.2825668
vt 0.3325209 0.2237224
vt 0.3646504 0.1869663
vt 0.3350919 0.1772408
vt 0.3164834 0.1988483
vt 0.2882677 0.2307103
vt 0.2385913 0.2127352
vt 0.2336923 0.1751483
vt 0.2909171 0.203029
vt 0.264892 0.1930014
vt 0.2578617 0.1738019
vt 0.3330219 0.14526
vt 0.3061538 0.1318165
vt 0.2705696 0.1446144
vt 0.3001008 0.1732879
vt 0.2971659 0.169742
vt 0.2993841 0.1745322
vt 0.2967116 0.162416
vt 0.2938305 0.1637307
vt 0.2981286 0.1658206
vt 0.2943177 0.1673468
vt 0.3003083 0.1730071
vn -0.8381406 0.4985081 0.2213822
vn -0.0004035566 1 6.733333E-05
vn -0.0002609642 1 0.0002109377
vn -0.6434113 0.4253304 0.6364872
vn -8.195612E-05 1 0.000274328
vn -0.2426435 0.4437545 0.8626738
vn 1.627711E-05 1 0.0002789981
vn 0.05096073 0.4476709 0.8927451
vn 0.0001152589 1 0.0002660778
vn 0.3360792 0.4462772 0.8293898
vn 0.0002592306 1 0.0002084445
vn 0.6515217 0.4460476 0.6136457
vn -0.8349658 0.5502053 0.01030817
vn -0.0004394905 0.9999999 -4.676108E-06
vn 0.0004141519 1 5.631524E-05
vn 0.8495364 0.4814081 0.215718
vn 0.0004376929 0.9999999 -3.858639E-05
vn 0.8302164 0.5542997 -0.05909752
vn -0.8260558 0.5578139 -0.08047038
vn -0.0004546246 0.9999999 -4.99638E-05
vn 0.0004386872 0.9999999 -6.517422E-05
vn 0.8184012 0.5617561 -0.1210353
vn -0.8102353 0.548964 -0.2053219
vn -0.0004545563 0.9999999 -0.0001122362
vn 0.0004312374 0.9999999 -7.657991E-05
vn 0.810363 0.567912 -0.1441798
vn -0.7588254 0.539376 -0.3650447
vn -0.0004105509 0.9999999 -0.0001780711
vn -0.7086582 0.5471728 -0.4454272
vn -0.0003424106 1 -0.0002098071
vn 0.0004122209 0.9999999 -0.0001335198
vn 0.7913475 0.492613 -0.3620795
vn 0.0002262668 1 -0.0002533782
vn 0.5205523 0.4335786 -0.7355507
vn 3.593136E-05 1 -0.0002912664
vn 0.1118759 0.4371005 -0.8924276
vn -9.809051E-05 1 -0.0002906164
vn -0.2412939 0.4476371 -0.8610449
vn -0.5724903 0.4661539 -0.6745039
vn -0.0002852037 1 -0.0002605623
vn -4.10746E-05 1 -1.762464E-05
vn -4.50609E-05 1 -1.113363E-05
vn -4.490122E-05 1 -5.249176E-06
vn -4.359323E-05 1 -8.078057E-07
vn -4.095072E-05 1 6.218304E-06
vn -2.685616E-05 1 2.105163E-05
vn -8.43796E-06 1 2.72792E-05
vn 1.383027E-06 1 2.77026E-05
vn 1.17422E-05 1 2.641411E-05
vn 2.639725E-05 1 2.084447E-05
vn 4.197724E-05 1 5.192339E-06
vn 4.324727E-05 1 -4.268555E-06
vn 4.31714E-05 1 -6.526794E-06
vn 4.23623E-05 1 -7.527442E-06
vn 4.181122E-05 1 -1.322401E-05
vn -0.094956 0.9929901 0.0703848
vn -0.01201609 0.9905565 0.1365779
vn 0.08469677 0.993152 0.08046987
vn -2.958545E-05 1 -2.608143E-05
vn -3.401252E-05 1 -2.075823E-05
vn -1.314768E-07 1 -1.553818E-07
vn -0.07713625 0.9901782 -0.1166061
vn -0.1874535 0.9814518 -0.04017045
vn -0.715498 0.489743 0.4982111
vn -0.0607173 0.4566005 0.8875976
vn 0.6412846 0.4987797 0.5830721
vn -0.8705735 0.4498779 -0.199278
vn -0.4787648 0.4688107 -0.7422943
vn 0.02094607 0.9857376 -0.1669814
vn 0.1072581 0.9896018 -0.09583389
vn 0.1981889 0.9801167 -0.009615026
vn 0.1235663 0.4334825 -0.8926502
vn 0.646591 0.4651348 -0.6046236
vn 0.9003614 0.432591 -0.04705646
vn -0.8381406 0.4985081 0.2213822
vn -0.6434113 0.4253304 0.6364872
vn -0.5119438 -0.7213726 0.4664066
vn -0.7247267 -0.6688298 0.1656439
vn -0.1826325 -0.7531581 0.6319795
vn -0.2426435 0.4437545 0.8626738
vn 0.03765099 -0.7583143 0.650801
vn 0.05096073 0.4476709 0.8927451
vn 0.2548826 -0.7501803 0.6101347
vn 0.3360792 0.4462772 0.8293898
vn 0.5201754 -0.7203006 0.4588951
vn 0.6515217 0.4460476 0.6136457
vn -0.8349658 0.5502053 0.01030817
vn -0.7762412 -0.6304186 0.004689184
vn 0.7305973 -0.6649501 0.1551419
vn 0.8495364 0.4814081 0.215718
vn 0.7757865 -0.6282591 -0.05870096
vn 0.8302164 0.5542997 -0.05909752
vn -0.8260558 0.5578139 -0.08047038
vn -0.7841828 -0.6155179 -0.07870894
vn 0.7825776 -0.6126228 -0.1107501
vn 0.8184012 0.5617561 -0.1210353
vn -0.8102353 0.548964 -0.2053219
vn -0.7607537 -0.618942 -0.1953576
vn 0.7657213 -0.6251431 -0.1512186
vn 0.810363 0.567912 -0.1441798
vn -0.7588254 0.539376 -0.3650447
vn -0.6844769 -0.6541083 -0.3219219
vn -0.7086582 0.5471728 -0.4454272
vn -0.6194568 -0.6836129 -0.385936
vn 0.6865172 -0.6691964 -0.2843769
vn 0.7913475 0.492613 -0.3620795
vn 0.4362002 -0.7116054 -0.5507696
vn 0.5205523 0.4335786 -0.7355507
vn 0.07794137 -0.739152 -0.6690139
vn 0.1118759 0.4371005 -0.8924276
vn -0.2019378 -0.7406937 -0.640776
vn -0.2412939 0.4476371 -0.8610449
vn -0.5724903 0.4661539 -0.6745039
vn -0.486972 -0.7076257 -0.5119807
vn -0.3004823 -0.9419807 -0.1496088
vn -0.3292877 -0.9399157 -0.09015647
vn -0.3354523 -0.9413921 -0.03539065
vn -0.3238687 -0.9461004 -0.001839906
vn -0.2976325 -0.9532061 0.05303975
vn -0.1979593 -0.9665111 0.1633049
vn -0.06305376 -0.9751582 0.212346
vn 0.01265682 -0.9763076 0.2160168
vn 0.08868572 -0.9745724 0.2057757
vn 0.1969129 -0.9671769 0.1606052
vn 0.305052 -0.951216 0.04616701
vn 0.3251681 -0.9452627 -0.02727824
vn 0.3370261 -0.9408141 -0.03580786
vn 0.3088565 -0.9479682 -0.07722687
vn 0.2773141 -0.946293 -0.1662122
vn -0.04234612 -0.9953865 -0.08609555
vn 0.01182502 -0.9999239 0.003500686
vn 0.09733858 -0.9926991 -0.07122995
vn -0.02869428 -0.9798236 -0.1977933
vn -0.2557663 -0.9538535 -0.1573125
vn -0.005973694 -0.9969401 -0.07794122
vn -0.1591823 -0.8995568 -0.4067661
vn -0.3795171 -0.9010156 -0.2100898
vn -0.8211839 -0.5302598 -0.2109069
vn -0.4670368 -0.5167359 -0.7175379
vn 0.05843054 -0.8538175 -0.5172827
vn 0.3565021 -0.8571934 -0.3716528
vn 0.5874681 -0.800823 -0.1164635
vn 0.1162916 -0.4821542 -0.8683338
vn 0.600167 -0.5250271 -0.6034453
vn 0.8150381 -0.5739695 -0.07919481
vn -0.6450583 -0.6435733 0.4119627
vn -0.0566796 -0.6434922 0.7633513
vn 0.549768 -0.6645347 0.5061113
vn -0.0607173 0.4566005 0.8875976
vn -0.715498 0.489743 0.4982111
vn 0.6412846 0.4987797 0.5830721
vn 0.1235663 0.4334825 -0.8926502
vn -0.4787648 0.4688107 -0.7422943
vn 0.646591 0.4651348 -0.6046236
vn -0.8705735 0.4498779 -0.199278
vn 0.9003614 0.432591 -0.04705646
g AntNoseCoin_0
f 3/3/3 2/2/2 1/1/1
f 4/4/4 3/3/3 1/1/1
f 5/5/5 3/3/3 4/4/4
f 6/6/6 5/5/5 4/4/4
f 7/7/7 5/5/5 6/6/6
f 8/8/8 7/7/7 6/6/6
f 9/9/9 7/7/7 8/8/8
f 10/10/10 9/9/9 8/8/8
f 11/11/11 9/9/9 10/10/10
f 12/12/12 11/11/11 10/10/10
f 1/1/1 2/2/2 13/13/13
f 2/2/2 14/14/14 13/13/13
f 15/15/15 11/11/11 12/12/12
f 16/16/16 15/15/15 12/12/12
f 17/17/17 15/15/15 16/16/16
f 18/18/18 17/17/17 16/16/16
f 13/13/13 14/14/14 19/19/19
f 14/14/14 20/20/20 19/19/19
f 21/21/21 17/17/17 18/18/18
f 22/22/22 21/21/21 18/18/18
f 19/19/19 20/20/20 23/23/23
f 20/20/20 24/24/24 23/23/23
f 25/25/25 21/21/21 22/22/22
f 26/26/26 25/25/25 22/22/22
f 23/23/23 24/24/24 27/27/27
f 24/24/24 28/28/28 27/27/27
f 27/27/27 28/28/28 29/29/29
f 28/28/28 30/30/30 29/29/29
f 31/31/31 25/25/25 26/26/26
f 32/32/32 31/31/31 26/26/26
f 33/33/33 31/31/31 32/32/32
f 34/34/34 33/33/33 32/32/32
f 35/35/35 33/33/33 34/34/34
f 36/36/36 35/35/35 34/34/34
f 37/37/37 35/35/35 36/36/36
f 38/38/38 37/37/37 36/36/36
f 29/29/29 30/30/30 39/39/39
f 30/30/30 40/40/40 39/39/39
f 40/40/40 37/37/37 38/38/38
f 39/39/39 40/40/40 38/38/38
f 30/30/30 28/28/28 41/41/41
f 41/41/41 28/28/28 42/42/42
f 28/28/28 24/24/24 42/42/42
f 42/42/42 24/24/24 43/43/43
f 24/24/24 20/20/20 43/43/43
f 43/43/43 20/20/20 44/44/44
f 20/20/20 14/14/14 44/44/44
f 44/44/44 14/14/14 45/45/45
f 14/14/14 2/2/2 45/45/45
f 45/45/45 2/2/2 46/46/46
f 2/2/2 3/3/3 46/46/46
f 46/46/46 3/3/3 47/47/47
f 3/3/3 5/5/5 47/47/47
f 47/47/47 5/5/5 48/48/48
f 5/5/5 7/7/7 48/48/48
f 48/48/48 7/7/7 49/49/49
f 7/7/7 9/9/9 49/49/49
f 49/49/49 9/9/9 50/50/50
f 9/9/9 11/11/11 50/50/50
f 50/50/50 11/11/11 51/51/51
f 11/11/11 15/15/15 51/51/51
f 51/51/51 15/15/15 52/52/52
f 15/15/15 17/17/17 52/52/52
f 52/52/52 17/17/17 53/53/53
f 17/17/17 21/21/21 53/53/53
f 53/53/53 21/21/21 54/54/54
f 21/21/21 25/25/25 54/54/54
f 54/54/54 25/25/25 55/55/55
f 25/25/25 31/31/31 55/55/55
f 55/55/55 31/31/31 56/56/56
f 31/31/31 33/33/33 56/56/56
f 56/56/56 33/33/33 57/57/57
f 33/33/33 35/35/35 57/57/57
f 57/57/57 35/35/35 58/58/58
f 35/35/35 37/37/37 58/58/58
f 58/58/58 37/37/37 59/59/59
f 37/37/37 40/40/40 59/59/59
f 59/59/59 40/40/40 60/60/60
f 40/40/40 30/30/30 60/60/60
f 60/60/60 30/30/30 41/41/41
f 41/41/41 61/61/61 60/60/60
f 55/55/55 61/61/61 54/54/54
f 60/60/60 61/61/61 59/59/59
f 54/54/54 61/61/61 53/53/53
f 53/53/53 61/61/61 52/52/52
f 52/52/52 61/61/61 51/51/51
f 51/51/51 61/61/61 50/50/50
f 50/50/50 61/61/61 49/49/49
f 49/49/49 61/61/61 48/48/48
f 48/48/48 61/61/61 47/47/47
f 47/47/47 61/61/61 46/46/46
f 46/46/46 61/61/61 45/45/45
f 45/45/45 61/61/61 44/44/44
f 44/44/44 61/61/61 43/43/43
f 43/43/43 61/61/61 42/42/42
f 42/42/42 61/61/61 41/41/41
f 62/62/62 61/61/61 55/55/55
f 63/63/63 62/62/62 55/55/55
f 55/55/55 56/56/56 63/63/63
f 56/56/56 64/64/64 63/63/63
f 65/65/65 64/64/64 56/56/56
f 57/57/57 65/65/65 56/56/56
f 66/66/66 65/65/65 57/57/57
f 58/58/58 66/66/66 57/57/57
f 64/64/64 67/67/67 63/63/63
f 63/63/63 67/67/67 62/62/62
f 67/67/67 68/68/68 62/62/62
f 62/62/62 68/68/68 69/69/69
f 69/69/69 61/61/61 62/62/62
f 70/70/70 61/61/61 69/69/69
f 59/59/59 61/61/61 70/70/70
f 59/59/59 70/70/70 71/71/71
f 58/58/58 59/59/59 71/71/71
f 68/68/68 72/72/72 69/69/69
f 69/69/69 72/72/72 70/70/70
f 72/72/72 73/73/73 70/70/70
f 70/70/70 73/73/73 71/71/71
f 74/74/74 66/66/66 58/58/58
f 71/71/71 74/74/74 58/58/58
f 73/73/73 74/74/74 71/71/71
f 77/77/77 76/76/76 75/75/75
f 78/78/78 77/77/77 75/75/75
f 77/77/77 79/79/79 76/76/76
f 79/79/79 80/80/80 76/76/76
f 79/79/79 81/81/81 80/80/80
f 81/81/81 82/82/82 80/80/80
f 81/81/81 83/83/83 82/82/82
f 83/83/83 84/84/84 82/82/82
f 83/83/83 85/85/85 84/84/84
f 85/85/85 86/86/86 84/84/84
f 78/78/78 75/75/75 87/87/87
f 88/88/88 78/78/78 87/87/87
f 85/85/85 89/89/89 86/86/86
f 89/89/89 90/90/90 86/86/86
f 89/89/89 91/91/91 90/90/90
f 91/91/91 92/92/92 90/90/90
f 88/88/88 87/87/87 93/93/93
f 94/94/94 88/88/88 93/93/93
f 91/91/91 95/95/95 92/92/92
f 95/95/95 96/96/96 92/92/92
f 94/94/94 93/93/93 97/97/97
f 98/98/98 94/94/94 97/97/97
f 95/95/95 99/99/99 96/96/96
f 99/99/99 100/100/100 96/96/96
f 98/98/98 97/97/97 101/101/101
f 102/102/102 98/98/98 101/101/101
f 102/102/102 101/101/101 103/103/103
f 104/104/104 102/102/102 103/103/103
f 99/99/99 105/105/105 100/100/100
f 105/105/105 106/106/106 100/100/100
f 105/105/105 107/107/107 106/106/106
f 107/107/107 108/108/108 106/106/106
f 107/107/107 109/109/109 108/108/108
f 109/109/109 110/110/110 108/108/108
f 109/109/109 111/111/111 110/110/110
f 111/111/111 112/112/112 110/110/110
f 104/104/104 103/103/103 113/113/113
f 114/114/114 104/104/104 113/113/113
f 114/114/114 113/113/113 112/112/112
f 111/111/111 114/114/114 112/112/112
f 102/102/102 104/104/104 115/115/115
f 102/102/102 115/115/115 116/116/116
f 98/98/98 102/102/102 116/116/116
f 98/98/98 116/116/116 117/117/117
f 94/94/94 98/98/98 117/117/117
f 94/94/94 117/117/117 118/118/118
f 88/88/88 94/94/94 118/118/118
f 88/88/88 118/118/118 119/119/119
f 78/78/78 88/88/88 119/119/119
f 78/78/78 119/119/119 120/120/120
f 77/77/77 78/78/78 120/120/120
f 77/77/77 120/120/120 121/121/121
f 79/79/79 77/77/77 121/121/121
f 79/79/79 121/121/121 122/122/122
f 81/81/81 79/79/79 122/122/122
f 81/81/81 122/122/122 123/123/123
f 83/83/83 81/81/81 123/123/123
f 83/83/83 123/123/123 124/124/124
f 85/85/85 83/83/83 124/124/124
f 85/85/85 124/124/124 125/125/125
f 89/89/89 85/85/85 125/125/125
f 89/89/89 125/125/125 126/126/126
f 91/91/91 89/89/89 126/126/126
f 91/91/91 126/126/126 127/127/127
f 95/95/95 91/91/91 127/127/127
f 95/95/95 127/127/127 128/128/128
f 99/99/99 95/95/95 128/128/128
f 99/99/99 128/128/128 129/129/129
f 105/105/105 99/99/99 129/129/129
f 105/105/105 129/129/129 130/130/130
f 107/107/107 105/105/105 130/130/130
f 107/107/107 130/130/130 131/131/131
f 109/109/109 107/107/107 131/131/131
f 109/109/109 131/131/131 132/132/132
f 111/111/111 109/109/109 132/132/132
f 111/111/111 132/132/132 114/114/114
f 132/132/132 133/133/133 114/114/114
f 114/114/114 133/133/133 134/134/134
f 104/104/104 114/114/114 134/134/134
f 104/104/104 134/134/134 115/115/115
f 135/135/135 115/115/115 134/134/134
f 135/135/135 129/129/129 128/128/128
f 135/135/135 134/134/134 133/133/133
f 135/135/135 128/128/128 127/127/127
f 135/135/135 127/127/127 126/126/126
f 135/135/135 126/126/126 125/125/125
f 135/135/135 125/125/125 124/124/124
f 135/135/135 124/124/124 123/123/123
f 135/135/135 123/123/123 122/122/122
f 135/135/135 122/122/122 121/121/121
f 135/135/135 121/121/121 120/120/120
f 135/135/135 120/120/120 119/119/119
f 135/135/135 119/119/119 118/118/118
f 135/135/135 118/118/118 117/117/117
f 135/135/135 117/117/117 116/116/116
f 135/135/135 116/116/116 115/115/115
f 129/129/129 135/135/135 136/136/136
f 129/129/129 136/136/136 137/137/137
f 137/137/137 130/130/130 129/129/129
f 138/138/138 137/137/137 136/136/136
f 139/139/139 138/138/138 136/136/136
f 139/139/139 136/136/136 140/140/140
f 135/135/135 140/140/140 136/136/136
f 135/135/135 141/141/141 140/140/140
f 135/135/135 133/133/133 141/141/141
f 141/141/141 133/133/133 142/142/142
f 133/133/133 132/132/132 142/142/142
f 143/143/143 139/139/139 140/140/140
f 143/143/143 140/140/140 141/141/141
f 144/144/144 143/143/143 141/141/141
f 144/144/144 141/141/141 142/142/142
f 145/145/145 144/144/144 142/142/142
f 145/145/145 142/142/142 132/132/132
f 146/146/146 130/130/130 137/137/137
f 138/138/138 146/146/146 137/137/137
f 146/146/146 147/147/147 130/130/130
f 147/147/147 131/131/131 130/130/130
f 148/148/148 132/132/132 131/131/131
f 147/147/147 148/148/148 131/131/131
f 148/148/148 145/145/145 132/132/132
f 149/149/149 147/147/147 146/146/146
f 150/150/150 149/149/149 146/146/146
f 151/151/151 148/148/148 147/147/147
f 149/149/149 151/151/151 147/147/147
f 152/152/152 143/143/143 144/144/144
f 152/152/152 153/153/153 143/143/143
f 153/153/153 139/139/139 143/143/143
f 154/154/154 152/152/152 144/144/144
f 154/154/154 144/144/144 145/145/145
f 153/153/153 155/155/155 139/139/139
f 155/155/155 138/138/138 139/139/139
f 150/150/150 146/146/146 138/138/138
f 155/155/155 150/150/150 138/138/138
f 156/156/156 154/154/154 145/145/145
f 156/156/156 145/145/145 148/148/148
f 151/151/151 156/156/156 148/148/148
